<?xml version="1.0" encoding="UTF-8" standalone="no"?>
<!-- Created with Inkscape (http://www.inkscape.org/) -->

<svg
   xmlns:dc="http://purl.org/dc/elements/1.1/"
   xmlns:cc="http://creativecommons.org/ns#"
   xmlns:rdf="http://www.w3.org/1999/02/22-rdf-syntax-ns#"
   xmlns:svg="http://www.w3.org/2000/svg"
   xmlns="http://www.w3.org/2000/svg"
   version="1.1"
   width="464.80579"
   height="499.38675"
   id="svg2">
  <defs
     id="defs4" />
  <metadata
     id="metadata7">
    <rdf:RDF>
      <cc:Work
         rdf:about="">
        <dc:format>image/svg+xml</dc:format>
        <dc:type
           rdf:resource="http://purl.org/dc/dcmitype/StillImage" />
        <dc:title></dc:title>
      </cc:Work>
    </rdf:RDF>
  </metadata>
  <g
     transform="translate(-53.307623,-172.66329)"
     id="layer1">
    <path
       d="m 374.34186,352.08719 c 8.37667,-5.59711 29.81247,-9.19 41.51569,-1.78103 16.28773,10.31129 34.12388,26.77737 22.47589,53.28555 l 14.89975,15.40483 c 0,0 11.78333,0.59059 14.64721,-3.53554 2.15339,-3.10249 0.94673,-10.34644 1.38896,-17.17259 0.21605,-3.33483 -5.44652,-3.28484 -6.94479,-6.56599 -1.49827,-3.28115 -1.30569,-8.9001 0,-11.61676 1.30569,-2.71666 2.99363,-3.39504 5.05076,-4.04061 2.41487,-0.75783 5.17951,-0.30856 7.57614,0.50508 1.14961,0.39029 1.8685,1.66849 3.03046,2.0203 1.45022,0.43909 3.15999,0.61299 4.54569,0 2.28887,-1.01253 2.71429,-4.65857 5.05076,-5.55583 1.57952,-0.60657 3.54134,-0.25943 5.05076,0.50507 2.02064,1.02343 2.49078,4.09802 4.54569,5.05076 5.04276,2.33801 11.71189,-2.01236 16.66752,0.50508 1.71142,0.86939 3.03417,2.69273 3.53553,4.54569 0.66542,2.4593 -0.20914,5.15761 -1.01015,7.57614 -0.54497,1.64546 -2.1486,2.85378 -2.52538,4.54569 -1.06382,4.77698 1.28958,9.76119 1.01015,14.64721 -0.26395,4.61543 -1.5434,9.11958 -2.52538,13.63706 -0.44235,2.03496 -0.5595,4.21069 -1.51523,6.06091 -1.42473,2.75814 -4.98386,4.15952 -6.06092,7.07107 -0.93458,2.52642 1.27107,5.70622 0,8.08122 -2.00501,3.7464 -8.28245,3.51384 -10.6066,7.07107 -1.58963,2.43305 -0.49808,5.86378 -1.51523,8.5863 -1.37427,3.67843 -3.15154,7.46428 -6.06091,10.10152 -2.62247,2.37718 -6.21446,3.50141 -9.59645,4.54569 -3.09429,0.95544 -6.57986,0.33721 -9.59645,1.51523 -3.39264,1.32487 -6.173,3.88183 -9.09138,6.06091 -2.10724,1.57342 -3.61298,4.08966 -6.06091,5.05077 -8.7885,3.45055 -19.27492,4.33932 -28.28427,1.51522 -5.49511,-1.72251 -10.93619,-5.52048 -13.63706,-10.6066 -2.37408,-4.47072 -1.01015,-15.15229 -1.01015,-15.15229 l -19.1929,-20.20305 c 0,0 -6.22621,-5.01602 -7.57615,-8.58629 -0.8336,-2.20469 2.10819,-6.01698 0,-7.07107 -2.25877,-1.12938 -6.06091,4.54569 -6.06091,4.54569 l -3.03046,6.06091 -9.59645,8.08122 c 0,0 -4.54331,2.76188 -5.55584,5.05076 -1.02165,2.3095 1.08145,5.29404 0,7.57615 -1.02468,2.16232 -3.6956,3.04065 -5.55584,4.54568 -2.51424,2.03415 -6.01951,3.22612 -7.57614,6.06092 -3.74956,6.82838 -3.82069,15.55184 -2.52538,23.23351 0.58854,3.49027 4.25056,6.06923 4.54568,9.59645 0.671,8.01981 -1.77639,16.76611 -6.56599,23.23351 -1.66761,2.25178 -7.07106,4.54568 -7.07106,4.54568 l 5.55583,9.09138 4.54569,10.10152 0,17.67767 c 0,0 0.4602,7.68554 2.02031,11.11168 1.78698,3.92438 8.08122,10.10152 8.08122,10.10152 l 1.51523,12.12183 1.01015,11.11168 0.50507,5.55584 -8.58629,4.04061 -2.02031,7.07107 c 0,0 13.31472,8.79199 20.70813,11.61675 4.3499,1.66194 10.20396,-0.11557 13.63706,3.03046 2.47315,2.26635 2.51942,6.28108 3.03046,9.59645 0.35908,2.32951 1.50528,5.25732 0,7.07107 -1.7503,2.10898 -6.21697,-0.49373 -8.08122,1.51523 -1.03702,1.11752 0.56107,3.45592 -0.50508,4.54568 -1.78169,1.82113 -5.25579,-0.0419 -7.57614,1.01016 -1.62995,0.73905 -2.38242,2.86223 -4.04061,3.53553 -2.96791,1.2051 -6.49708,1.31422 -9.59645,0.50508 -3.6607,-0.95569 -6.02225,-4.82029 -9.59645,-6.06092 -3.03864,-1.05475 -7.35423,1.29599 -9.59645,-1.01015 -1.53023,-1.57385 -0.50508,-6.56599 -0.50508,-6.56599 0,0 -10.25628,2.64656 -14.64721,0.50507 -2.05819,-1.0038 -3.38447,-3.36193 -4.04061,-5.55584 -1.0142,-3.39113 -0.92685,-7.36964 0.50508,-10.6066 2.02277,-4.57257 10.6066,-10.6066 10.6066,-10.6066 l 0,-6.56599 -7.57615,-1.01015 0.50508,-18.68783 c 0,0 -2.10935,-7.16351 -3.53553,-10.6066 -0.4322,-1.04341 -1.01832,-2.01626 -1.51523,-3.03045 -2.05418,-4.19254 -3.30431,-8.85887 -6.06092,-12.62691 -2.32066,-3.17213 -5.61829,-5.50463 -8.58629,-8.08122 -4.07031,-3.53354 -12.62691,-10.10153 -12.62691,-10.10153 l -1.35258,-0.50507 -1.35258,0.50507 c 0,0 -8.5566,6.56799 -12.62691,10.10153 -2.968,2.57659 -6.26563,4.90909 -8.58629,8.08122 -2.75661,3.76804 -4.00674,8.43437 -6.06092,12.62691 -0.49691,1.01419 -1.08303,1.98704 -1.51523,3.03045 -1.42618,3.44309 -3.53553,10.6066 -3.53553,10.6066 l 0.50508,18.68783 -7.57615,1.01015 0,6.56599 c 0,0 8.58383,6.03403 10.6066,10.6066 1.43193,3.23696 1.51928,7.21547 0.50508,10.6066 -0.65614,2.19391 -1.98242,4.55204 -4.04061,5.55584 -4.39093,2.14149 -14.64721,-0.50507 -14.64721,-0.50507 0,0 1.02515,4.99214 -0.50508,6.56599 -2.24222,2.30614 -6.55781,-0.0446 -9.59645,1.01015 -3.5742,1.24063 -5.93575,5.10523 -9.59645,6.06092 -3.09937,0.80914 -6.62854,0.70002 -9.59645,-0.50508 -1.65819,-0.6733 -2.41066,-2.79648 -4.04061,-3.53553 -2.32035,-1.05209 -5.79445,0.81097 -7.57614,-1.01016 -1.06615,-1.08976 0.53194,-3.42816 -0.50508,-4.54568 -1.86425,-2.00896 -6.33092,0.59375 -8.08122,-1.51523 -1.50528,-1.81375 -0.35908,-4.74156 0,-7.07107 0.51104,-3.31537 0.55731,-7.3301 3.03046,-9.59645 3.4331,-3.14603 9.28716,-1.36852 13.63706,-3.03046 7.39341,-2.82476 20.70813,-11.61675 20.70813,-11.61675 l -2.02031,-7.07107 -8.58629,-4.04061 0.50507,-5.55584 1.01015,-11.11168 1.51523,-12.12183 c 0,0 6.29424,-6.17714 8.08122,-10.10152 1.56011,-3.42614 2.02031,-11.11168 2.02031,-11.11168 l 0,-17.67767 4.54569,-10.10152 5.55583,-9.09138 c 0,0 -5.40345,-2.2939 -7.07106,-4.54568 -4.7896,-6.4674 -7.23699,-15.2137 -6.56599,-23.23351 0.29512,-3.52722 3.95714,-6.10618 4.54568,-9.59645 1.29531,-7.68167 1.22418,-16.40513 -2.52538,-23.23351 -1.55663,-2.8348 -5.0619,-4.02677 -7.57614,-6.06092 -1.86024,-1.50503 -4.53116,-2.38336 -5.55584,-4.54568 -1.08145,-2.28211 1.02165,-5.26665 0,-7.57615 -1.01253,-2.28888 -5.55584,-5.05076 -5.55584,-5.05076 l -9.59645,-8.08122 -3.03046,-6.06091 c 0,0 -3.80214,-5.67507 -6.06091,-4.54569 -2.10819,1.05409 0.8336,4.86638 0,7.07107 -1.34994,3.57027 -7.57615,8.58629 -7.57615,8.58629 l -19.1929,20.20305 c 0,0 1.36393,10.68157 -1.01015,15.15229 -2.70087,5.08612 -8.14195,8.88409 -13.63706,10.6066 -9.00935,2.8241 -19.49577,1.93533 -28.28427,-1.51522 -2.44793,-0.96111 -3.95367,-3.47735 -6.06091,-5.05077 -2.91838,-2.17908 -5.69874,-4.73604 -9.09138,-6.06091 -3.01659,-1.17802 -6.502153,-0.55979 -9.596447,-1.51523 -3.381987,-1.04428 -6.973976,-2.16851 -9.596449,-4.54569 -2.909371,-2.63724 -4.68664,-6.42309 -6.060915,-10.10152 -1.017145,-2.72252 0.07442,-6.15325 -1.515229,-8.5863 -2.324149,-3.55723 -8.601591,-3.32467 -10.606602,-7.07107 -1.271062,-2.375 0.934583,-5.5548 0,-8.08122 -1.077054,-2.91155 -4.636188,-4.31293 -6.060915,-7.07107 -0.955735,-1.85022 -1.072881,-4.02595 -1.515229,-6.06091 -0.981985,-4.51748 -2.261427,-9.02163 -2.525381,-13.63706 -0.279428,-4.88602 2.073968,-9.87023 1.010152,-14.64721 -0.376783,-1.69191 -1.980412,-2.90023 -2.525381,-4.54569 -0.801007,-2.41853 -1.675572,-5.11684 -1.010153,-7.57614 0.50136,-1.85296 1.824113,-3.6763 3.535534,-4.54569 4.955624,-2.51744 11.624762,1.83293 16.667517,-0.50508 2.054915,-0.95274 2.525049,-4.02733 4.545687,-5.05076 1.509419,-0.7645 3.471242,-1.11164 5.050762,-0.50507 2.336471,0.89726 2.761888,4.5433 5.050763,5.55583 1.385699,0.61299 3.095472,0.43909 4.545686,0 1.161959,-0.35181 1.88085,-1.63001 3.030458,-2.0203 2.396638,-0.81364 5.161272,-1.26291 7.576142,-0.50508 2.05713,0.64557 3.74507,1.32395 5.05076,4.04061 1.30569,2.71666 1.49827,8.33561 0,11.61676 -1.49827,3.28115 -7.16084,3.23116 -6.94479,6.56599 0.44223,6.82615 -0.76443,14.0701 1.38896,17.17259 2.86388,4.12613 14.64721,3.53554 14.64721,3.53554 l 14.89975,-15.40483 c -11.64799,-26.50818 6.25982,-42.86193 22.47589,-53.28555 10.75469,-6.91307 29.96186,-4.48305 38.33853,1.11406"
       id="path3185"
       style="fill:#5179d0;fill-opacity:1;stroke:#000000;stroke-width:1px;stroke-linecap:butt;stroke-linejoin:miter;stroke-opacity:1" />
    <path
       d="m 378.18689,309.54937 c 0,0 0.13808,-4.87878 0.33203,-14.09704 0.33759,-1.77045 -0.8666,-30.3454 -2.62405,-38.22141 -1.75745,-7.87601 -3.35219,-12.36728 -7.5831,-14.80819 -4.23092,-2.44092 -13.01484,-3.40963 -13.01484,-3.40963 -15.76329,-2.33107 -23.89309,-2.35839 -70.14195,-3.00805 -46.24887,-0.64963 -72.21967,3.10876 -72.21967,3.10876 0,0 -8.77558,0.97487 -13.0065,3.41579 -4.23091,2.44091 -5.82564,6.93218 -7.5831,14.8082 -1.75745,7.87601 -2.95024,36.45095 -2.61265,38.22141 0.19394,9.21825 0.32063,14.09704 0.32063,14.09704 m -0.008,-0.0167 c -0.0976,1.75747 1.10655,30.33241 2.86401,38.20842 1.75745,7.87602 3.35219,12.36729 7.5831,14.8082 4.23092,2.44091 13.01471,3.4228 13.01471,3.4228 0,0 25.87716,2.43539 71.70122,1.78448 45.82405,-0.65091 53.76516,0.52073 69.45388,-1.85971 0,0 8.85416,-1.01353 13.08508,-3.45444 4.23091,-2.44091 5.82564,-6.93219 7.5831,-14.8082 1.75745,-7.87601 2.96164,-36.45095 2.864,-38.20842"
       id="path3075-4"
       style="fill:#2b9b57;fill-opacity:1;stroke:#000000;stroke-width:1.03474879px;stroke-linecap:butt;stroke-linejoin:miter;stroke-opacity:1" />
    <path
       d="m 250.37858,348.46631 c 0,0 -22.4629,-0.82015 -29.47971,-2.27819 -7.0168,-1.45803 -6.37891,-2.18705 -8.65709,-8.29259 -2.27819,-6.10553 -3.09834,-25.15115 -3.00721,-27.24709 0.0911,-2.09593 -0.45564,-12.75783 0.27338,-26.15356 0.72902,-13.39573 2.14149,-15.8106 2.27818,-17.13195 0.1367,-1.32134 0.68346,-8.70266 7.97366,-9.61393 7.29018,-0.91127 19.04494,-3.76614 42.75768,-4.02389 23.71274,-0.25775 34.83617,0.53707 47.8121,3.6729 7.23006,1.74725 7.21063,8.1951 7.73241,11.14756 0.27519,1.55715 2.57743,24.16344 1.99754,43.17265 -0.57988,19.00886 -2.96409,28.67438 -3.1574,29.51205 -0.19331,0.83768 -1.2243,2.77079 -4.05952,3.99509 -2.83522,1.22429 -16.49582,2.44859 -32.99164,3.28627 -16.49582,0.83768 -29.47238,-0.0454 -29.47238,-0.0454 z"
       id="path3096"
       style="fill:none;stroke:#000000;stroke-width:1.03098869px;stroke-linecap:butt;stroke-linejoin:miter;stroke-opacity:1" />
    <path
       d="m 343.1875,258.70593 a 7.96875,7.96875 0 1 1 -15.9375,0 7.96875,7.96875 0 1 1 15.9375,0 z"
       transform="matrix(1.0309887,0,0,1.0309887,8.5720614,-1.1091937)"
       id="path3098"
       style="fill:#000000;fill-opacity:1" />
    <path
       d="m 343.1875,258.70593 a 7.96875,7.96875 0 1 1 -15.9375,0 7.96875,7.96875 0 1 1 15.9375,0 z"
       transform="matrix(1.0309887,0,0,1.0309887,8.4754055,18.640686)"
       id="path3098-5"
       style="fill:#000000;fill-opacity:1" />
    <rect
       width="25.903591"
       height="1.7397934"
       x="337.32858"
       y="306.30554"
       id="rect3118"
       style="fill:#000000;fill-opacity:1" />
    <rect
       width="25.903591"
       height="1.7397934"
       x="337.32858"
       y="309.46295"
       id="rect3138"
       style="fill:#000000;fill-opacity:1" />
    <rect
       width="25.903591"
       height="1.7397934"
       x="337.32858"
       y="312.55591"
       id="rect3140"
       style="fill:#000000;fill-opacity:1" />
    <rect
       width="25.903591"
       height="1.7397934"
       x="337.32858"
       y="315.84219"
       id="rect3142"
       style="fill:#000000;fill-opacity:1" />
    <rect
       width="25.903591"
       height="1.7397934"
       x="337.32858"
       y="318.99957"
       id="rect3144"
       style="fill:#000000;fill-opacity:1" />
    <rect
       width="25.903591"
       height="1.7397934"
       x="337.32858"
       y="322.22144"
       id="rect3146"
       style="fill:#000000;fill-opacity:1" />
    <rect
       width="25.903591"
       height="1.7397934"
       x="337.32858"
       y="325.31439"
       id="rect3148"
       style="fill:#000000;fill-opacity:1" />
    <rect
       width="25.903591"
       height="1.7397934"
       x="337.32858"
       y="328.60068"
       id="rect3150"
       style="fill:#000000;fill-opacity:1" />
    <rect
       width="25.903591"
       height="1.7397934"
       x="337.32858"
       y="331.82251"
       id="rect3152"
       style="fill:#000000;fill-opacity:1" />
    <rect
       width="25.903591"
       height="1.7397934"
       x="337.32858"
       y="334.91547"
       id="rect3154"
       style="fill:#000000;fill-opacity:1" />
    <rect
       width="25.903591"
       height="1.7397934"
       x="337.32858"
       y="338.00842"
       id="rect3156"
       style="fill:#000000;fill-opacity:1" />
    <path
       d="m 255.15625,235.89343 -51.625,-53.04687"
       id="path3181"
       style="fill:none;stroke:#000000;stroke-width:1px;stroke-linecap:butt;stroke-linejoin:miter;stroke-opacity:1" />
    <path
       d="m 313.69025,236.58193 34.78081,-63.41864"
       id="path3183"
       style="fill:none;stroke:#000000;stroke-width:1px;stroke-linecap:butt;stroke-linejoin:miter;stroke-opacity:1" />
    <path
       d="m 235.24794,346.64616 c -6.62868,-0.44955 -13.82868,-1.39741 -16,-2.10636 -3.51992,-1.14929 -4.13607,-1.85629 -5.68424,-6.52244 -4.90709,-14.78983 -4.18492,-66.60416 1.05254,-75.51785 1.92982,-3.28439 1.67555,-3.19894 16.18385,-5.43871 8.77884,-1.35527 17.65219,-1.77945 37.5,-1.79268 34.42815,-0.023 44.77389,1.76617 47.3337,8.18551 4.57935,11.48386 3.91483,73.07553 -0.85037,78.81725 -1.83605,2.21231 -7.07082,3.237 -22.53989,4.4121 -15.79704,1.20003 -38.9787,1.18505 -56.99559,-0.0368 l 0,10e-6 z"
       id="path3189"
       style="fill:#ffffff;fill-opacity:1" />
  </g>
</svg>
